<?xml version="1.0" standalone="no"?><!DOCTYPE svg PUBLIC "-//W3C//DTD SVG 1.1//EN" "http://www.w3.org/Graphics/SVG/1.1/DTD/svg11.dtd"><svg t="1511943966760" class="icon" style="" viewBox="0 0 1024 1024" version="1.1" xmlns="http://www.w3.org/2000/svg" p-id="2512" xmlns:xlink="http://www.w3.org/1999/xlink" width="200" height="200"><defs><style type="text/css"></style></defs><path d="M553.801 988.522v-806.253l198.198 205.882c5.271 5.27 13.818 5.27 19.088 0l41.355-41.355c5.27-5.271 5.27-13.818 0-19.088l-249.509-259.175c-0.252-0.299-0.511-0.595-0.792-0.875l-1.384-1.384-38.479-39.971c-2.822-2.821-6.584-4.115-10.279-3.916-3.702-0.206-7.474 1.089-10.301 3.915l-39.862 41.355c-0.265 0.267-0.509 0.544-0.747 0.827l-249.549 259.224c-5.272 5.271-5.272 13.817 0 19.088l41.355 41.355c5.27 5.27 13.815 5.27 19.088 0l196.341-203.951v804.321c0 7.454 6.042 13.497 13.497 13.497h58.488c7.453 0 13.497-6.041 13.497-13.497z" p-id="2513"></path></svg>